<?xml version="1.0" encoding="iso-8859-1"?>
<!-- Generator: Adobe Illustrator 19.0.0, SVG Export Plug-In . SVG Version: 6.00 Build 0)  -->
<svg version="1.1" id="Capa_1" xmlns="http://www.w3.org/2000/svg" xmlns:xlink="http://www.w3.org/1999/xlink" x="0px" y="0px"
	 viewBox="0 0 511.972 511.972" style="enable-background:new 0 0 511.972 511.972;" xml:space="preserve">
<g>
	<path style="fill:#CB8252;" d="M322.952,244.084L99.624,467.412c-22.809,22.773-59.752,22.773-82.561,0
		c-22.75-22.819-22.75-59.742,0-82.561l20.64-20.64c7.613-7.568,19.908-7.568,27.52,0c7.522,7.631,7.522,19.889,0,27.52
		l-20.64,20.64c-7.568,7.613-7.568,19.908,0,27.52c7.631,7.522,19.889,7.522,27.52,0l223.328-223.328L322.952,244.084z"/>
	<path style="fill:#F0C419;" d="M445.881,98.343c-0.719-0.866-1.485-1.691-2.295-2.472c-91.195-91.189-239.045-91.189-330.239,0
		c18.574-18.603,47.291-22.497,70.149-9.512c22.858,12.985,34.217,39.646,27.748,65.126c-1.152,4.359,0.962,8.92,5.032,10.858h0.088
		c2.02,1.114,4.394,1.399,6.621,0.794c19.923-5.053,41.035,0.763,55.56,15.306c14.525,14.543,20.315,35.662,15.237,55.579
		c-0.809,3.29,0.168,6.763,2.572,9.149c2.405,2.386,5.885,3.337,9.168,2.503c19.922-4.994,41.003,0.838,55.525,15.36
		c14.523,14.523,20.354,35.604,15.36,55.525c-0.598,2.227-0.314,4.599,0.794,6.621c1.908,4.101,6.496,6.227,10.858,5.032
		c25.461-6.395,52.059,4.989,65.01,27.823c12.951,22.834,9.071,51.504-9.484,70.075C533.866,335.872,534.889,189.839,445.881,98.343
		z"/>
	<path style="fill:#E64C3C;" d="M443.586,95.872c-54.554-54.554-178.228,29.396-227.222,66.472h-0.088
		c-4.07-1.938-6.184-6.499-5.032-10.858c6.469-25.48-4.89-52.141-27.748-65.126c-22.858-12.985-51.575-9.091-70.149,9.512
		C204.541,4.683,352.391,4.683,443.586,95.872z"/>
	<path style="fill:#3B97D3;" d="M443.586,426.112c18.555-18.57,22.435-47.24,9.484-70.075
		c-12.951-22.834-39.549-34.218-65.01-27.823c-4.362,1.195-8.95-0.931-10.858-5.032c36.458-48.11,118.554-169.137,68.679-224.839
		C534.889,189.839,533.866,335.872,443.586,426.112z"/>
</g>
<g>
</g>
<g>
</g>
<g>
</g>
<g>
</g>
<g>
</g>
<g>
</g>
<g>
</g>
<g>
</g>
<g>
</g>
<g>
</g>
<g>
</g>
<g>
</g>
<g>
</g>
<g>
</g>
<g>
</g>
</svg>
